<svg height="503pt" viewBox="-4 0 503 503.46663" width="503pt" xmlns="http://www.w3.org/2000/svg"><path d="m375.867188 264.535156h-256c-51.386719-.070312-97.0625 32.730469-113.417969 81.449219-16.351563 48.71875.285156 102.4375 41.308593 133.386719 41.023438 30.949218 97.246094 32.195312 139.601563 3.09375 4.097656-2.917969 8.988281-4.523438 14.019531-4.597656h93.011719c5.035156.074218 9.921875 1.679687 14.023437 4.597656 42.359376 29.105468 98.582032 27.855468 139.609376-3.101563 41.023437-30.957031 57.652343-84.679687 41.289062-133.398437-16.363281-48.722656-62.050781-81.515625-113.445312-81.429688zm0 0" fill="#c9ced1"/><path d="m247.867188 238.933594c-4.710938 0-8.53125-3.820313-8.53125-8.535156v-8.53125c.035156-32.976563 26.757812-59.695313 59.734374-59.734376h8.53125c23.566407 0 42.667969-19.101562 42.667969-42.667968 0-23.5625-19.101562-42.664063-42.667969-42.664063h-102.398437c-32.976563-.039062-59.695313-26.761719-59.734375-59.734375v-8.53125c0-4.714844 3.820312-8.535156 8.535156-8.535156 4.710938 0 8.53125 3.820312 8.53125 8.535156v8.53125c.027344 23.550782 19.113282 42.640625 42.667969 42.667969h102.398437c32.992188 0 59.734376 26.742187 59.734376 59.730469 0 32.992187-26.742188 59.734375-59.734376 59.734375h-8.53125c-23.554687.027343-42.640624 19.113281-42.667968 42.667969v8.53125c0 2.265624-.898438 4.433593-2.5 6.035156-1.601563 1.601562-3.769532 2.5-6.035156 2.5zm0 0" fill="#919d9e"/><path d="m179.601562 384c0 32.988281-26.742187 59.734375-59.734374 59.734375-32.988282 0-59.730469-26.746094-59.730469-59.734375s26.742187-59.734375 59.730469-59.734375c32.992187 0 59.734374 26.746094 59.734374 59.734375zm0 0" fill="#a5b4b4"/><path d="m461.203125 384c0 47.128906-38.207031 85.332031-85.335937 85.332031-47.125 0-85.332032-38.203125-85.332032-85.332031s38.207032-85.332031 85.332032-85.332031c47.128906 0 85.335937 38.203125 85.335937 85.332031zm0 0" fill="#a5b4b4"/><g fill="#586270"><path d="m34.835938 264.535156c-3.765626.003906-7.085938-2.457031-8.179688-6.058594-1.089844-3.597656.304688-7.488281 3.433594-9.578124 26.582031-17.71875 57.832031-27.128907 89.777344-27.03125 4.714843 0 8.535156 3.820312 8.535156 8.53125 0 4.714843-3.820313 8.535156-8.535156 8.535156-28.570313-.09375-56.519532 8.316406-80.296876 24.15625-1.402343.941406-3.050781 1.441406-4.734374 1.445312zm0 0"/><path d="m460.902344 264.535156c-1.683594-.003906-3.332032-.503906-4.734375-1.445312-23.777344-15.839844-51.730469-24.25-80.300781-24.15625-4.710938 0-8.53125-3.820313-8.53125-8.535156 0-4.710938 3.820312-8.53125 8.53125-8.53125 31.949218-.097657 63.199218 9.3125 89.78125 27.03125 3.128906 2.089843 4.523437 5.980468 3.429687 9.578124-1.089844 3.601563-4.414063 6.0625-8.175781 6.058594zm0 0"/><path d="m119.867188 418.132812c-4.710938 0-8.53125-3.820312-8.53125-8.53125v-51.203124c0-4.710938 3.820312-8.53125 8.53125-8.53125 4.714843 0 8.535156 3.820312 8.535156 8.53125v51.203124c0 4.710938-3.820313 8.53125-8.535156 8.53125zm0 0"/><path d="m145.46875 392.535156h-51.199219c-4.714843 0-8.535156-3.824218-8.535156-8.535156s3.820313-8.535156 8.535156-8.535156h51.199219c4.710938 0 8.535156 3.824218 8.535156 8.535156s-3.824218 8.535156-8.535156 8.535156zm0 0"/><path d="m196.667969 443.734375c-3.449219 0-6.5625-2.082031-7.882813-5.269531-1.320312-3.1875-.589844-6.859375 1.851563-9.296875l17.066406-17.066407c3.347656-3.234374 8.667969-3.1875 11.960937.101563 3.292969 3.292969 3.339844 8.613281.105469 11.964844l-17.066406 17.066406c-1.601563 1.597656-3.769531 2.5-6.035156 2.5zm0 0"/><path d="m247.867188 443.734375c-3.449219 0-6.558594-2.082031-7.878907-5.269531-1.320312-3.1875-.59375-6.859375 1.847657-9.296875l17.066406-17.066407c3.347656-3.234374 8.671875-3.1875 11.960937.101563 3.292969 3.292969 3.339844 8.613281.105469 11.964844l-17.066406 17.066406c-1.601563 1.597656-3.769532 2.5-6.035156 2.5zm0 0"/></g><path d="m370.871094 342.800781c6.664062 6.664063 6.664062 17.472657 0 24.136719l-12.066406 12.066406c-6.667969 6.667969-17.472657 6.667969-24.136719 0-6.664063-6.664062-6.664063-17.46875 0-24.136718l12.066406-12.066407c6.664063-6.664062 17.472656-6.664062 24.136719 0zm0 0" fill="#5496ce"/><path d="m422.070312 385.46875c6.667969 6.664062 6.667969 17.472656 0 24.136719l-12.066406 12.066406c-6.664062 6.667969-17.472656 6.667969-24.136718 0-6.664063-6.664063-6.664063-17.46875 0-24.132813l12.070312-12.070312c6.664062-6.664062 17.46875-6.664062 24.132812 0zm0 0" fill="#d8625e"/><path d="m196.667969 264.535156h102.402343v17.066406c0 9.425782-7.644531 17.066407-17.066406 17.066407h-68.269531c-9.425781 0-17.066406-7.640625-17.066406-17.066407zm0 0" fill="#a5b4b4"/><path d="m239.335938 230.398438h17.066406c9.425781 0 17.066406 7.640624 17.066406 17.066406v17.070312h-51.199219v-17.070312c0-9.425782 7.640625-17.066406 17.066407-17.066406zm0 0" fill="#a5b4b4"/></svg>