<svg id="Ebene_1" data-name="Ebene 1" xmlns="http://www.w3.org/2000/svg" viewBox="0 0 16 16">
  <defs>
    <style>
      .cls-1 {
        fill: #fff;
        fill-rule: evenodd;
      }
    </style>
  </defs>
  <path class="cls-1" d="M9.54.83c2.09-.22,1.59-.45,2.81,1.26,2,.64,1.64.23,2.07,2.29,1.56,1.4,1.39.87.95,2.93.86,1.91.92,1.36-.32,3.06,0,2.1.28,1.63-1.54,2.67-.85,1.92-.4,1.6-2.5,1.81-1.55,1.41-1,1.3-3,.64-2,.66-1.46.77-3-.64-2.1-.21-1.65.11-2.5-1.81C.67,12,1,12.47,1,10.37-.29,8.67-.23,9.22.63,7.31.19,5.25,0,5.78,1.58,4.38,2,2.32,1.64,2.73,3.65,2.09,4.87.38,4.37.61,6.46.83c1.82-1,1.26-1,3.08,0ZM10,10.16c0,1.75.83,1.29,1,1.08s.47-2.37-.39-2.37c-.52,0-.58.65-.58,1.29ZM4.8,5.84c0,1.77.84,1.26,1,1.08s.47-2.35-.4-2.35c-.51,0-.57.64-.57,1.27Zm-1.24,0C3.56,7.15,4.1,8,5.4,8c2.28,0,2-3,1.32-3.82s-3.16-1-3.16,1.64ZM6.4,12.37l4.38-8.74H9.63l-4.4,8.74Zm2.37-2.22c0,1.31.54,2.2,1.84,2.2,2.28,0,2.05-3,1.33-3.84S8.77,7.48,8.77,10.15Z"/>
</svg>
