<svg id="Ebene_1" data-name="Ebene 1" xmlns="http://www.w3.org/2000/svg" viewBox="0 0 16 16">
  <defs>
    <style>
      .cls-1 {
        fill: #fff;
      }
    </style>
  </defs>
  <g id="Gruppe_375" data-name="Gruppe 375">
    <g id="Gruppe_335" data-name="Gruppe 335">
      <path id="Pfad_5109" data-name="Pfad 5109" class="cls-1" d="M4.6,4.34A1.08,1.08,0,0,0,5.69,3.27h0V1.09A1.08,1.08,0,0,0,4.62,0h0a1.11,1.11,0,0,0-1.1,1.09V3.24a1.08,1.08,0,0,0,1.06,1.1h0Z"/>
      <path id="Pfad_5110" data-name="Pfad 5110" class="cls-1" d="M11.38,4.34a1.08,1.08,0,0,0,1.09-1.07h0V1.09a1.09,1.09,0,0,0-2.18,0V3.24a1.09,1.09,0,0,0,1.08,1.1h0Z"/>
      <path id="Pfad_5111" data-name="Pfad 5111" class="cls-1" d="M14.79,2.17H13.38V3.26a2,2,0,0,1-4,0V2.17H6.59V3.26a2,2,0,0,1-4,0V2.17H1.19A1.19,1.19,0,0,0,0,3.36V14.9a1.2,1.2,0,0,0,1.18,1.19H14.81A1.19,1.19,0,0,0,16,14.9V3.36a1.2,1.2,0,0,0-1.2-1.19ZM11.13,9.25,8,12.36a1,1,0,0,1-.63.27.87.87,0,0,1-.63-.27L5.09,10.71a.89.89,0,0,1,0-1.26h0a.93.93,0,0,1,1.28,0l1,1L9.87,8a.9.9,0,0,1,1.27,0h0A.9.9,0,0,1,11.13,9.25Z"/>
    </g>
  </g>
</svg>
