<svg id="Ebene_1" data-name="Ebene 1" xmlns="http://www.w3.org/2000/svg" viewBox="0 0 16 16">
  <defs>
    <style>
      .cls-1 {
        fill: #fff;
      }
    </style>
  </defs>
  <g id="Gruppe_377" data-name="Gruppe 377">
    <path id="cloud_logo" data-name="cloud logo" class="cls-1" d="M12.57,6.12A3.72,3.72,0,0,0,12,3.87,4.23,4.23,0,0,0,9.27,2a4.52,4.52,0,0,0-3.12.5A4,4,0,0,0,4.26,5a3.71,3.71,0,0,0-.09,1.15A4.55,4.55,0,0,0,1.63,7,3.85,3.85,0,0,0,.15,9,4,4,0,0,0,1.5,13.16h0A4.73,4.73,0,0,0,4.14,14a4.84,4.84,0,0,0,1.26-.1,6.18,6.18,0,0,0,2.69-1.81h0a4.44,4.44,0,0,0,2.07,1.47,4.58,4.58,0,0,0,4.37-.65,3.81,3.81,0,0,0,1.24-1.65,3.68,3.68,0,0,0,.13-2.13,3.87,3.87,0,0,0-2.57-2.8,4.91,4.91,0,0,0-.75-.21M7.15,10.51a4,4,0,0,1-1,1,3.46,3.46,0,0,1-1.37.71,2.57,2.57,0,0,1-2-.39,2.27,2.27,0,0,1-.73-2.35,2.13,2.13,0,0,1,.8-1A2.53,2.53,0,0,1,4.23,8h0c1.52,0,2,.73,2.7,2.23a1,1,0,0,0,.16.36Zm6.08,1a2.47,2.47,0,0,1-2.36.34c-1.12-.4-1.55-1.32-2-2.4A6.91,6.91,0,0,0,7.44,7.26,3.87,3.87,0,0,0,6.06,6.4a1.89,1.89,0,0,1,0-1,2.09,2.09,0,0,1,1-1.32A2.62,2.62,0,0,1,8.92,3.8a2.41,2.41,0,0,1,1.56,1,1.83,1.83,0,0,1,.24,1.46,3.68,3.68,0,0,1-1,1.57L10.9,9.21A7.27,7.27,0,0,0,12,7.84h0a4.26,4.26,0,0,1,.62.13A2.05,2.05,0,0,1,14,9.52a2,2,0,0,1-.72,2Z"/>
  </g>
</svg>
