<svg id="Ebene_1" data-name="Ebene 1" xmlns="http://www.w3.org/2000/svg" viewBox="0 0 16 16">
  <defs>
    <style>
      .cls-1 {
        fill: #fff;
      }
    </style>
  </defs>
  <path id="Form_65" data-name="Form 65" class="cls-1" d="M13.66,5.23A8,8,0,0,0,.32,13.11H15.68A8,8,0,0,0,16,10.88,7.93,7.93,0,0,0,13.66,5.23ZM8.19,4.05a1,1,0,0,1,0,2A1,1,0,1,1,8.19,4ZM2.12,11.52a1,1,0,1,1,1-1A1,1,0,0,1,2.12,11.52Zm2-3.78a1,1,0,1,1,1-1,1,1,0,0,1-1,1Zm5.39,3.5A1.33,1.33,0,0,1,7.78,12a1.32,1.32,0,0,1-.67-.56A1.33,1.33,0,0,1,7,10.3a1.08,1.08,0,0,1,.32-.49l4.4-4.32Zm4.45.28a1,1,0,0,1,0-2.06,1,1,0,0,1,0,2Z"/>
</svg>
