<svg id="Ebene_1" data-name="Ebene 1" xmlns="http://www.w3.org/2000/svg" viewBox="0 0 16 16">
  <defs>
    <style>
      .cls-1 {
        fill: #fff;
      }
    </style>
  </defs>
  <g id="Gruppe_373" data-name="Gruppe 373">
    <path id="Pfad_5135" data-name="Pfad 5135" class="cls-1" d="M14.9.35H1.09A1.09,1.09,0,0,0,0,1.44H0v9.22a1.09,1.09,0,0,0,1.08,1.1h1.5v2.9a1,1,0,0,0,1,1,.94.94,0,0,0,.69-.29l3.59-3.59h7A1.08,1.08,0,0,0,16,10.72v0h0V1.45A1.09,1.09,0,0,0,14.92.35h0Zm-3.36,4.4L7.76,8.52a.8.8,0,0,1-1.13,0h0L4.46,6.38A.81.81,0,1,1,5.61,5.23h0L7.17,6.8l3.19-3.18a.8.8,0,0,1,1.13,0h0a.75.75,0,0,1,.1,1.06h0Z"/>
  </g>
</svg>
