<svg id="Ebene_1" data-name="Ebene 1" xmlns="http://www.w3.org/2000/svg" viewBox="0 0 16 16">
  <defs>
    <style>
      .cls-1 {
        fill: #666;
      }
    </style>
  </defs>
  <g id="Gruppe_1548" data-name="Gruppe 1548">
    <g id="Gruppe_348" data-name="Gruppe 348">
      <path id="Pfad_5124" data-name="Pfad 5124" class="cls-1" d="M8,0a8,8,0,0,1,5.66,13.65A8,8,0,0,1,0,8,8,8,0,0,1,8,0Zm.5,1.07V6a10.85,10.85,0,0,0,2.78-.46,9.64,9.64,0,0,0-.89-2.6A3.53,3.53,0,0,0,8.5,1.07ZM8.49,7V9a11.57,11.57,0,0,1,2.93.47A14.32,14.32,0,0,0,11.49,8a14.06,14.06,0,0,0-.07-1.47A11.56,11.56,0,0,1,8.5,7Zm0,3v4.92a3.56,3.56,0,0,0,1.9-1.86,10,10,0,0,0,.88-2.6A10.85,10.85,0,0,0,8.5,10Zm-1,4.92V10a11,11,0,0,0-2.78.46,9.64,9.64,0,0,0,.89,2.6A3.58,3.58,0,0,0,7.5,14.93ZM7.5,9V7a11.71,11.71,0,0,1-2.93-.47c0,.48-.07,1-.07,1.47s0,1,.07,1.49A11.71,11.71,0,0,1,7.5,9Zm0-3V1.07A3.55,3.55,0,0,0,5.61,2.93a9.64,9.64,0,0,0-.89,2.6A11,11,0,0,0,7.5,6Zm6.36,5.84a6.59,6.59,0,0,0-1.64-1,10.13,10.13,0,0,1-1,2.72,5.68,5.68,0,0,1-.6.93A7.13,7.13,0,0,0,13,13a10.07,10.07,0,0,0,.92-1.13Zm-10.08-1a6.65,6.65,0,0,0-1.65,1A8.24,8.24,0,0,0,3,13a7.16,7.16,0,0,0,2.29,1.52,7.09,7.09,0,0,1-.61-.93,10.57,10.57,0,0,1-.94-2.72ZM1.64,11a8,8,0,0,1,2-1.15A10.94,10.94,0,0,1,3.5,8a12.23,12.23,0,0,1,.12-1.81,7.21,7.21,0,0,1-2-1.13A7.14,7.14,0,0,0,1,8a7.05,7.05,0,0,0,.65,3ZM12.38,9.8a7.94,7.94,0,0,1,2,1.15A7,7,0,0,0,15,8a7.14,7.14,0,0,0-.64-2.94,7.3,7.3,0,0,1-2,1.13A13.76,13.76,0,0,1,12.5,8a13.64,13.64,0,0,1-.12,1.81ZM2.14,4.17a6.15,6.15,0,0,0,1.64,1,10.11,10.11,0,0,1,1-2.72,6.42,6.42,0,0,1,.6-.93A6.83,6.83,0,0,0,2.14,4.17Zm10.08,1a7.16,7.16,0,0,0,1.65-1A7.13,7.13,0,0,0,13,3.05a6.85,6.85,0,0,0-2.28-1.52,6.42,6.42,0,0,1,.6.93,9.78,9.78,0,0,1,1,2.72Z"/>
    </g>
  </g>
</svg>
