<svg id="Ebene_1" data-name="Ebene 1" xmlns="http://www.w3.org/2000/svg" viewBox="0 0 16 16">
  <defs>
    <style>
      .cls-1 {
        fill: #fff;
      }
    </style>
  </defs>
  <g id="Gruppe_374" data-name="Gruppe 374">
    <path id="Pfad_5133" data-name="Pfad 5133" class="cls-1" d="M8.12,4.53H6.77V7.66H8.12A3.62,3.62,0,0,0,9.3,7.5,1.31,1.31,0,0,0,10,7a1.62,1.62,0,0,0,.25-.91A1.58,1.58,0,0,0,9.89,5,2.44,2.44,0,0,0,8.12,4.53Z"/>
    <path id="Pfad_5134" data-name="Pfad 5134" class="cls-1" d="M8,0a8,8,0,1,0,8,8A8,8,0,0,0,8,0Zm3.47,8.42a4.38,4.38,0,0,1-2.87.8H6.7v2.9a1.32,1.32,0,0,1-.29.94A1,1,0,0,1,5,13.14l-.08-.08a1.35,1.35,0,0,1-.29-.93V4.25a1.31,1.31,0,0,1,.31-1,1.43,1.43,0,0,1,1-.29H8.6a7,7,0,0,1,1.82.18A2.67,2.67,0,0,1,12.2,4.73,3.44,3.44,0,0,1,12.43,6,2.92,2.92,0,0,1,11.47,8.42Z"/>
  </g>
</svg>
