<svg id="Ebene_1" data-name="Ebene 1" xmlns="http://www.w3.org/2000/svg" viewBox="0 0 16 16">
  <defs>
    <style>
      .cls-1 {
        fill: #fff;
      }
    </style>
  </defs>
  <path class="cls-1" d="M8,.12A7.88,7.88,0,1,0,15.88,8,7.9,7.9,0,0,0,8,.12ZM4.28,9.05l0,.08,0,0L2.56,10.81l-.07-.16A5.79,5.79,0,0,1,1.88,8a5.86,5.86,0,0,1,.61-2.66l.08-.15L4.3,7l0,.07A3.44,3.44,0,0,0,4.28,9.05Zm6.37,4.46A6,6,0,0,1,8,14.12H8a6.09,6.09,0,0,1-2.65-.61l-.15-.08L7,11.7l.07,0a3.44,3.44,0,0,0,2,0l.08,0,0,.05,1.63,1.69ZM5.88,8A2.12,2.12,0,1,1,8,10.12,2.12,2.12,0,0,1,5.88,8ZM9,4.3,9,4.28A3.3,3.3,0,0,0,7,4.28L7,4.3l0,0L5.19,2.57l.15-.08A6.08,6.08,0,0,1,8,1.88H8a6,6,0,0,1,2.63.61l.16.08Zm4.47,6.35-.08.16L11.7,9l0-.07a3.44,3.44,0,0,0,0-2l0-.08,1.74-1.68.07.16A6,6,0,0,1,13.51,10.65Z"/>
</svg>
