<svg id="Ebene_1" data-name="Ebene 1" xmlns="http://www.w3.org/2000/svg" viewBox="0 0 16 16">
  <defs>
    <style>
      .cls-1 {
        fill: #fff;
      }
    </style>
  </defs>
  <path class="cls-1" d="M4.64,0h6.72A4.64,4.64,0,0,1,16,4.64h0v6.72A4.64,4.64,0,0,1,11.36,16H4.64A4.64,4.64,0,0,1,0,11.36H0V4.64A4.64,4.64,0,0,1,4.64,0h0M4.48,1.6A2.88,2.88,0,0,0,1.6,4.48h0v7A2.88,2.88,0,0,0,4.44,14.4h7a2.88,2.88,0,0,0,2.88-2.88h0v-7A2.88,2.88,0,0,0,11.52,1.6h-7M12.2,2.8a1,1,0,1,1-1,1,1,1,0,0,1,1-1M8,4A4,4,0,1,1,4,8,4,4,0,0,1,8,4M8,5.6A2.4,2.4,0,1,0,10.4,8h0A2.39,2.39,0,0,0,8,5.6Z"/>
</svg>
