<svg id="Ebene_1" data-name="Ebene 1" xmlns="http://www.w3.org/2000/svg" viewBox="0 0 16 16">
  <defs>
    <style>
      .cls-1 {
        fill: #fff;
      }
    </style>
  </defs>
  <path id="twitter" class="cls-1" d="M16,3a6.24,6.24,0,0,1-1.89.51A3.29,3.29,0,0,0,15.56,1.7a6.54,6.54,0,0,1-2.09.79,3.29,3.29,0,0,0-5.59,3A9.32,9.32,0,0,1,1.11,2.1a3.29,3.29,0,0,0,1,4.38A3.28,3.28,0,0,1,.64,6.07h0A3.28,3.28,0,0,0,3.28,9.33a3.41,3.41,0,0,1-1.49.06,3.32,3.32,0,0,0,3.07,2.28,6.63,6.63,0,0,1-4.08,1.4A6.85,6.85,0,0,1,0,13,9.28,9.28,0,0,0,14.34,5.3V4.73A6.66,6.66,0,0,0,16,3Z"/>
</svg>
