<svg id="Ebene_1" data-name="Ebene 1" xmlns="http://www.w3.org/2000/svg" viewBox="0 0 16 16">
  <defs>
    <style>
      .cls-1 {
        fill: #fff;
      }
    </style>
  </defs>
  <path id="xing2" class="cls-1" d="M8,0a8,8,0,1,0,8,8A8,8,0,0,0,8,0ZM5.4,10H4a.23.23,0,0,1-.19-.1.22.22,0,0,1,0-.22L5.3,7h0l-1-1.68A.21.21,0,0,1,4.3,5a.19.19,0,0,1,.15,0H6a.44.44,0,0,1,.4.27L7.35,7,5.79,9.73A.45.45,0,0,1,5.4,10Zm6.83-6.7L9,9H9l2,3.71a.24.24,0,0,1,0,.23.22.22,0,0,1-.2.09H9.44a.44.44,0,0,1-.44-.3L7,9l3.2-5.72A.41.41,0,0,1,10.58,3h1.47a.19.19,0,0,1,.22.15.18.18,0,0,1,0,.16Z"/>
</svg>
