<svg id="Ebene_1" data-name="Ebene 1" xmlns="http://www.w3.org/2000/svg" viewBox="0 0 16 16">
  <defs>
    <style>
      .cls-1 {
        fill: #fff;
      }
    </style>
  </defs>
  <path id="xing" class="cls-1" d="M14.85,0H12.33a.72.72,0,0,0-.61.34l-.28.55L7,9.78l2.67,5.33.27.55a.71.71,0,0,0,.62.34h2.51c.44,0,.43-.34.31-.56l-.16-.33L10.56,9.78,15,.89l.16-.33C15.27.34,15.29,0,14.85,0ZM5.17,3.89a.69.69,0,0,0-.61-.33H2c-.44,0-.42.33-.31.56l.16.32L3,6.67l-2,4L.84,11c-.11.23-.13.57.31.57H3.67a.72.72,0,0,0,.61-.34c.12-.25.28-.55.28-.55l2-4L5.44,4.44Z"/>
</svg>
